<svg width="34" height="32" viewBox="0 0 34 32" fill="none" xmlns="http://www.w3.org/2000/svg">
<path d="M14.6635 28.629L14.6628 28.6283C10.361 24.7275 6.83091 21.5261 4.37018 18.5176C1.91519 15.5161 0.576904 12.7678 0.576904 9.78205C0.576904 4.92486 4.38638 1.11539 9.24357 1.11539C11.9922 1.11539 14.638 2.39735 16.3629 4.42289L16.7436 4.86992L17.1242 4.42289C18.8491 2.39735 21.495 1.11539 24.2436 1.11539C29.1008 1.11539 32.9102 4.92486 32.9102 9.78205C32.9102 12.7678 31.5719 15.5162 29.1169 18.5198C26.6635 21.5213 23.1474 24.7165 18.8633 28.6096L18.825 28.6444L18.824 28.6454L16.7448 30.5237L14.6635 28.629Z" stroke="#007CEF"/>
</svg>
